<svg version="1.2" xmlns="http://www.w3.org/2000/svg" viewBox="0 0 496 496" width="496" height="496">
	<title>download-svg</title>
	<style>
		.s0 { fill: #ce2828 } 
	</style>
	<path id="Layer" fill-rule="evenodd" class="s0" d="m496 248c0 137-111 248-248 248-137 0-248-111-248-248 0-137 111-248 248-248 137 0 248 111 248 248zm-192 0l65.7-65c4.7-4.7 4.7-12.3 0-17l-39.6-39.6c-4.7-4.7-12.3-4.7-17 0l-65.1 65.6-65-65.7c-4.7-4.7-12.3-4.7-17 0l-39.6 39.6c-4.7 4.7-4.7 12.3 0 17l65.6 65.1-65.6 65c-4.7 4.7-4.7 12.3 0 17l39.5 39.6c4.7 4.7 12.3 4.7 17 0l65.1-65.6 65 65.6c4.7 4.7 12.3 4.7 17 0l39.6-39.5c4.7-4.7 4.7-12.3 0-17z"/>
</svg>